# xmcd
#
# Track frame offsets: 
#        150
#        4808
#        19718
#        41813
#        55673
#        73820
#        89637
#        108101
#        126383
#        144406
#        160329
#        183297
#
# Disc length: 2721 seconds
#
# Revision: 0
# Processed by: cddbd v1.5.2PL0 Copyright (c) Steve Scherf et al.
# Submitted via: ExactAudioCopyFreeDBPlugin 1.0
#
DISCID=a20a9f0c
DTITLE=Tess Henley - Easy to Love (Deluxe Edition)
DYEAR=2011
DGENRE=Soul
TTITLE0=Intro to Pompis Song
TTITLE1=Easy to Love
TTITLE2=Disguise
TTITLE3=Fool with You
TTITLE4=Understand It's You
TTITLE5=Hitting Me Hard Now
TTITLE6=Complicated
TTITLE7=Pompi's Song
TTITLE8=What You Won't Do for Love
TTITLE9=Understand It's You (Remix)
TTITLE10=Which Way to Hollywood
TTITLE11=Is This Love
EXTD=
EXTT0=
EXTT1=
EXTT2=
EXTT3=
EXTT4=
EXTT5=
EXTT6=
EXTT7=
EXTT8=
EXTT9=
EXTT10=
EXTT11=
PLAYORDER=
